<svg width="18" height="20" viewBox="0 0 18 20" fill="none" xmlns="http://www.w3.org/2000/svg">
<path fill-rule="evenodd" clip-rule="evenodd" d="M6.25507 2.83172C6.34202 1.3913 7.53773 0.25 9.00001 0.25C10.4623 0.25 11.658 1.3913 11.7449 2.83172C14.1041 3.8831 15.75 6.24849 15.75 9V12.1585C15.75 12.4984 15.885 12.8244 16.1254 13.0647L17.5303 14.4697C17.7448 14.6842 17.809 15.0068 17.6929 15.287C17.5768 15.5673 17.3034 15.75 17 15.75H12.75V16C12.75 18.0711 11.0711 19.75 9.00001 19.75C6.92894 19.75 5.25001 18.0711 5.25001 16V15.75H1.00001C0.69666 15.75 0.423183 15.5673 0.307097 15.287C0.191011 15.0068 0.255178 14.6842 0.469677 14.4697L1.87461 13.0647C2.11497 12.8244 2.25001 12.4984 2.25001 12.1585V9C2.25001 6.24849 3.89596 3.8831 6.25507 2.83172ZM6.75001 15.75V16C6.75001 17.2426 7.75737 18.25 9.00001 18.25C10.2426 18.25 11.25 17.2426 11.25 16V15.75H6.75001ZM9.00001 1.75C8.30965 1.75 7.75001 2.30964 7.75001 3V3.34142C7.75001 3.65928 7.54963 3.94262 7.24994 4.04855C5.20984 4.76962 3.75001 6.71529 3.75001 9V12.1585C3.75001 12.8962 3.45694 13.6037 2.93527 14.1254L2.81067 14.25H15.1893L15.0647 14.1254C14.5431 13.6037 14.25 12.8962 14.25 12.1585V9C14.25 6.71529 12.7902 4.76962 10.7501 4.04855C10.4504 3.94262 10.25 3.65928 10.25 3.34142V3C10.25 2.30964 9.69036 1.75 9.00001 1.75Z" fill="#eeeeee"/>
</svg>
