<svg width="20" height="20" viewBox="0 0 20 20" fill="none" xmlns="http://www.w3.org/2000/svg">
<path fill-rule="evenodd" clip-rule="evenodd" d="M6.66667 1.875C7.01184 1.875 7.29167 2.15482 7.29167 2.5V3.54167L12.7083 3.54167V2.5C12.7083 2.15482 12.9882 1.875 13.3333 1.875C13.6785 1.875 13.9583 2.15482 13.9583 2.5V3.54167L15.8333 3.54167C17.099 3.54167 18.125 4.56768 18.125 5.83333L18.125 15.8333C18.125 17.099 17.099 18.125 15.8333 18.125L4.16667 18.125C2.90101 18.125 1.875 17.099 1.875 15.8333L1.875 5.83333C1.875 4.56768 2.90101 3.54167 4.16667 3.54167L6.04167 3.54167V2.5C6.04167 2.15482 6.32149 1.875 6.66667 1.875ZM6.04167 4.79167L4.16667 4.79167C3.59137 4.79167 3.125 5.25804 3.125 5.83333L3.125 15.8333C3.125 16.4086 3.59137 16.875 4.16667 16.875H15.8333C16.4086 16.875 16.875 16.4086 16.875 15.8333V5.83333C16.875 5.25804 16.4086 4.79167 15.8333 4.79167H13.9583V5.83333C13.9583 6.17851 13.6785 6.45833 13.3333 6.45833C12.9882 6.45833 12.7083 6.17851 12.7083 5.83333V4.79167L7.29167 4.79167V5.83333C7.29167 6.17851 7.01184 6.45833 6.66667 6.45833C6.32149 6.45833 6.04167 6.17851 6.04167 5.83333V4.79167ZM5.20833 9.16667C5.20833 8.82149 5.48816 8.54167 5.83333 8.54167L14.1667 8.54167C14.5118 8.54167 14.7917 8.82149 14.7917 9.16667C14.7917 9.51185 14.5118 9.79167 14.1667 9.79167L5.83333 9.79167C5.48816 9.79167 5.20833 9.51185 5.20833 9.16667Z" fill="#CDD3D4"/>
</svg>
