<svg width="15" height="18" viewBox="0 0 15 18" fill="none" xmlns="http://www.w3.org/2000/svg">
<path d="M13.1 13.4875C13.8375 12.7 14.1687 11.7688 14.0187 10.6938C13.8312 9.35625 13.0875 8.43125 11.8312 7.925C11.725 7.88125 11.6875 7.8375 11.6875 7.71875C11.6875 5.81875 11.6875 3.91875 11.6875 2.01875C11.6875 1.54375 11.4062 1.13125 10.975 0.95625C10.9062 0.925 10.825 0.93125 10.7688 0.875H1.04375C1.04375 0.875 1.01875 0.9 1.00625 0.90625C0.4375 1.075 0.125 1.48125 0.125 2.075C0.125 6.1 0.125 10.1187 0.125 14.1437C0.125 14.2312 0.125 14.3187 0.14375 14.4062C0.2625 14.9688 0.7125 15.3375 1.2875 15.3375C3.5625 15.3375 5.84375 15.3375 8.11875 15.3375C8.2375 15.3375 8.275 15.3563 8.275 15.4875C8.26875 16.0375 8.275 16.5813 8.275 17.1313C8.275 17.6187 8.68125 17.85 9.1125 17.6125C9.58125 17.35 10.0562 17.0812 10.5187 16.8125C10.6125 16.7563 10.675 16.7625 10.7688 16.8125C11.2375 17.0875 11.7188 17.3438 12.1875 17.625C12.6062 17.875 13.0188 17.5187 13.0125 17.125C12.9875 16.0063 13.0063 14.8813 13 13.7563C13 13.65 13.0312 13.575 13.1 13.5V13.4875ZM8.1 14.2875C7.0875 14.2813 6.075 14.2875 5.0625 14.2875C3.8375 14.2875 2.6125 14.2875 1.3875 14.2875C1.18125 14.2875 1.175 14.2813 1.175 14.075C1.175 12.0875 1.175 10.1 1.175 8.11875C1.175 6.1375 1.175 4.15625 1.175 2.175C1.175 2.02083 1.25 1.94375 1.4 1.94375C4.40625 1.94375 7.40625 1.94375 10.4125 1.94375C10.6312 1.94375 10.6312 1.94375 10.6312 2.1625C10.6312 3.96875 10.6312 5.775 10.6312 7.58125C10.6312 7.69375 10.6062 7.725 10.4875 7.725C8.96875 7.75 7.55625 8.94375 7.275 10.4438C7.05625 11.6188 7.35625 12.65 8.175 13.5187C8.2375 13.5875 8.2625 13.65 8.25625 13.7375C8.25625 13.8625 8.24375 13.9875 8.25625 14.1125C8.26875 14.25 8.2375 14.2937 8.0875 14.2937L8.1 14.2875ZM11.9438 16.2563C11.6375 16.0813 11.3312 15.925 11.0437 15.7375C10.7625 15.5563 10.5062 15.5563 10.225 15.7375C9.9375 15.925 9.6375 16.0813 9.325 16.2563V14.2875C10.1938 14.625 11.0625 14.6313 11.9438 14.2875V16.2563ZM10.6312 13.4938C9.33125 13.4938 8.2625 12.4125 8.275 11.1187C8.28125 9.825 9.35 8.7625 10.6438 8.76875C11.9438 8.76875 13.0125 9.85 13.0063 11.1438C13 12.4375 11.925 13.5 10.6375 13.4938H10.6312Z" fill="#EEEEEE"/>
</svg>
