<svg width="20" height="20" viewBox="0 0 20 20" fill="none" xmlns="http://www.w3.org/2000/svg">
<path fill-rule="evenodd" clip-rule="evenodd" d="M11.875 4.16667C11.875 2.90101 12.901 1.875 14.1667 1.875L15.8333 1.875C17.099 1.875 18.125 2.90101 18.125 4.16667L18.125 15.8333C18.125 17.099 17.099 18.125 15.8333 18.125H14.1667C13.51 18.125 12.9178 17.8488 12.5 17.4062C12.0822 17.8488 11.49 18.125 10.8333 18.125H9.16667C8.50999 18.125 7.91782 17.8488 7.5 17.4062C7.08218 17.8488 6.49001 18.125 5.83333 18.125H4.16667C2.90101 18.125 1.875 17.099 1.875 15.8333L1.875 10.8333C1.875 9.56768 2.90101 8.54167 4.16667 8.54167H5.83333C6.20843 8.54167 6.56247 8.63178 6.875 8.79155V7.5C6.875 6.23435 7.90101 5.20833 9.16667 5.20833H10.8333C11.2084 5.20833 11.5625 5.29845 11.875 5.45821V4.16667ZM13.125 15.8333C13.125 16.4086 13.5914 16.875 14.1667 16.875H15.8333C16.4086 16.875 16.875 16.4086 16.875 15.8333V4.16667C16.875 3.59137 16.4086 3.125 15.8333 3.125L14.1667 3.125C13.5914 3.125 13.125 3.59137 13.125 4.16667L13.125 15.8333ZM11.875 7.5C11.875 6.9247 11.4086 6.45833 10.8333 6.45833L9.16667 6.45833C8.59137 6.45833 8.125 6.9247 8.125 7.5L8.125 15.8333C8.125 16.4086 8.59137 16.875 9.16667 16.875H10.8333C11.4086 16.875 11.875 16.4086 11.875 15.8333V7.5ZM6.875 10.8333C6.875 10.258 6.40863 9.79167 5.83333 9.79167H4.16667C3.59137 9.79167 3.125 10.258 3.125 10.8333L3.125 15.8333C3.125 16.4086 3.59137 16.875 4.16667 16.875H5.83333C6.40863 16.875 6.875 16.4086 6.875 15.8333L6.875 10.8333Z" fill="#eeeeee"/>
</svg>
