<svg width="20" height="20" viewBox="0 0 20 20" fill="none" xmlns="http://www.w3.org/2000/svg">
<path fill-rule="evenodd" clip-rule="evenodd" d="M3.1281 9.79167C3.12604 9.86086 3.125 9.93031 3.125 10C3.125 13.2966 5.4452 16.0512 8.54167 16.72L8.54167 15C8.54167 14.4247 8.0753 13.9583 7.5 13.9583C6.23435 13.9583 5.20833 12.9323 5.20833 11.6667V10.8333C5.20833 10.258 4.74196 9.79167 4.16667 9.79167H3.1281ZM3.27998 8.54167H4.16667C5.43232 8.54167 6.45833 9.56768 6.45833 10.8333V11.6667C6.45833 12.242 6.9247 12.7083 7.5 12.7083C8.76565 12.7083 9.79167 13.7343 9.79167 15L9.79167 16.8719C9.86086 16.874 9.93031 16.875 10 16.875C10.65 16.875 11.279 16.7848 11.875 16.6162V15C11.875 13.7343 12.901 12.7083 14.1667 12.7083H16.321C16.6776 11.8772 16.875 10.9617 16.875 10C16.875 9.03833 16.6776 8.12278 16.321 7.29167L15.8333 7.29167C15.258 7.29167 14.7917 7.75804 14.7917 8.33333C14.7917 9.59899 13.7657 10.625 12.5 10.625C11.2343 10.625 10.2083 9.59899 10.2083 8.33333C10.2083 7.75804 9.74196 7.29167 9.16667 7.29167H8.75C7.25423 7.29167 6.04167 6.0791 6.04167 4.58333V4.37816C4.65737 5.35463 3.6498 6.82948 3.27998 8.54167ZM7.29167 3.67902V4.58333C7.29167 5.38875 7.94458 6.04167 8.75 6.04167H9.16667C10.4323 6.04167 11.4583 7.06768 11.4583 8.33333C11.4583 8.90863 11.9247 9.375 12.5 9.375C13.0753 9.375 13.5417 8.90863 13.5417 8.33333C13.5417 7.13681 14.4587 6.15447 15.6282 6.05072C14.3843 4.2813 12.3272 3.125 10 3.125C9.03833 3.125 8.12278 3.32245 7.29167 3.67902ZM17.2802 6.38836C15.9505 3.71332 13.19 1.875 10 1.875C5.51269 1.875 1.875 5.51269 1.875 10C1.875 14.4873 5.51269 18.125 10 18.125C14.4873 18.125 18.125 14.4873 18.125 10C18.125 8.70306 17.8211 7.47709 17.2807 6.38941C17.2805 6.38906 17.2803 6.38871 17.2802 6.38836ZM15.6218 13.9583H14.1667C13.5914 13.9583 13.125 14.4247 13.125 15V16.1254C14.1231 15.6151 14.9801 14.8681 15.6218 13.9583Z" fill="#eeeeee"/>
</svg>
