<svg width="18" height="14" viewBox="0 0 18 14" fill="none" xmlns="http://www.w3.org/2000/svg">
<path fill-rule="evenodd" clip-rule="evenodd" d="M1.70659 7.0003C2.74505 10.0311 5.61934 12.2087 9.00067 12.2087C12.382 12.2087 15.2563 10.0311 16.2947 7.00035C15.2563 3.96959 12.382 1.79199 9.00065 1.79199C5.61934 1.79199 2.74506 3.96956 1.70659 7.0003ZM0.452548 6.81301C1.59391 3.1791 4.9885 0.541992 9.00065 0.541992C13.0128 0.541992 16.4074 3.17914 17.5488 6.81308C17.5871 6.935 17.5871 7.06572 17.5488 7.18764C16.4074 10.8215 13.0128 13.4587 9.00067 13.4587C4.98849 13.4587 1.59389 10.8215 0.452547 7.18758C0.414255 7.06566 0.414255 6.93493 0.452548 6.81301ZM9.00029 5.12533C7.96475 5.12533 7.12529 5.96479 7.12529 7.00033C7.12529 8.03586 7.96475 8.87532 9.00029 8.87532C10.0358 8.87532 10.8753 8.03586 10.8753 7.00033C10.8753 5.96479 10.0358 5.12533 9.00029 5.12533ZM5.87529 7.00033C5.87529 5.27444 7.27439 3.87533 9.00029 3.87533C10.7262 3.87533 12.1253 5.27444 12.1253 7.00033C12.1253 8.72621 10.7262 10.1253 9.00029 10.1253C7.27439 10.1253 5.87529 8.72621 5.87529 7.00033Z" fill="#CACACA"/>
</svg>
