<svg width="20" height="20" viewBox="0 0 20 20" fill="none" xmlns="http://www.w3.org/2000/svg">
<g clip-path="url(#clip0_3561_6590)">
<path d="M16.0668 3.35984C15.5002 3.25984 14.9335 3.16936 14.3716 3.07412C14.243 3.05507 14.1382 3.10746 14.1144 3.23126C14.0382 3.62174 13.9811 4.01222 13.9192 4.36936C13.9144 4.55507 13.9763 4.63127 14.1573 4.65984C14.7097 4.75507 15.2573 4.84555 15.8097 4.93603C15.9525 4.95984 16.0668 4.88841 16.0906 4.74555C16.1573 4.37412 16.2192 4.00746 16.2763 3.63126C16.2954 3.47412 16.2335 3.38841 16.0668 3.35984ZM15.6906 4.38365C15.6811 4.45031 15.643 4.45031 15.624 4.44555C15.2192 4.37888 14.843 4.31222 14.4668 4.25507C14.4049 4.24555 14.4049 4.21698 14.4144 4.16936C14.443 3.99317 14.4763 3.81698 14.5002 3.64555C14.5097 3.56936 14.5525 3.56936 14.6049 3.57888C14.9763 3.64079 15.3478 3.70269 15.7192 3.75984C15.7716 3.76936 15.7906 3.78841 15.7811 3.84079C15.7478 4.02174 15.7144 4.20269 15.6906 4.38365Z" fill="#EEEEEE"/>
<path d="M10.0001 15.4883C9.87625 15.4883 9.80006 15.5549 9.78101 15.6788C9.77148 15.7359 9.77625 15.7883 9.77148 15.8454C9.77625 15.9026 9.77148 15.9597 9.78101 16.0121C9.80006 16.1359 9.87625 16.2026 10.0001 16.2026C10.1239 16.2073 10.2048 16.1407 10.2239 16.0216C10.2429 15.9073 10.2429 15.7883 10.2239 15.674C10.2048 15.5502 10.1239 15.4883 10.0001 15.4883Z" fill="#EEEEEE"/>
<path d="M16.2143 5.80435C16.6143 5.68054 16.8714 5.40911 16.9476 4.99007C17.0238 4.57102 17.1 4.14721 17.1572 3.72816C17.2476 3.09007 16.9095 2.6234 16.2762 2.50435C16 2.45197 15.7238 2.41388 15.4476 2.36626C15.1095 2.30435 14.7667 2.27578 14.4334 2.18531C14.3191 2.18531 14.2095 2.18531 14.0953 2.18531C13.9572 2.20911 13.8143 2.2234 13.6953 2.30435C13.4429 2.47578 13.2714 2.70435 13.2095 2.99959C13.1572 3.24721 13.1143 3.49959 13.0857 3.75197C13.0667 3.90435 13.0048 4.02816 12.9 4.14245C12.4953 4.59483 12.1 5.05197 11.7048 5.50435C11.3762 5.88054 11.0524 6.25673 10.7191 6.62816C10.6572 6.69959 10.5857 6.72816 10.4953 6.72816C10.1905 6.7234 9.88573 6.7234 9.58097 6.72816C9.48573 6.72816 9.41907 6.69959 9.35716 6.62816C9.20478 6.45673 9.05716 6.28054 8.90478 6.10911C8.28573 5.41388 7.68573 4.70435 7.06192 4.01388C6.98573 3.92816 6.93811 3.83292 6.92383 3.71388C6.89526 3.50435 6.86192 3.29007 6.82383 3.08054C6.72383 2.5615 6.42383 2.2615 5.91431 2.17578C5.80002 2.17578 5.6905 2.17578 5.57621 2.17578C5.57145 2.18531 5.56669 2.19483 5.55716 2.19483C4.98097 2.29007 4.40478 2.40435 3.82383 2.47578C3.09526 2.56626 2.73335 3.17578 2.8524 3.75197C2.93335 4.1615 2.9905 4.57578 3.06192 4.98531C3.13811 5.39959 3.38573 5.66626 3.78097 5.79483C3.87621 5.82816 3.90954 5.86626 3.92383 5.95673C4.16192 7.39959 4.40002 8.84721 4.64288 10.2901C4.65716 10.371 4.64288 10.4139 4.58097 10.471C4.18573 10.8329 4.28573 11.452 4.77621 11.671C4.85716 11.7091 4.8905 11.752 4.90002 11.8377C4.96669 12.2472 5.03335 12.6615 5.10478 13.071C5.17621 13.5139 5.24764 13.952 5.32859 14.3948C5.34764 14.5044 5.31907 14.5329 5.20954 14.5282C5.04764 14.5186 4.88573 14.5234 4.71907 14.5282C4.66192 14.5282 4.61907 14.5234 4.58097 14.4615C4.37145 14.1567 4.06669 14.0377 3.7524 14.1282C3.43335 14.2234 3.23335 14.5044 3.23335 14.871C3.22859 15.5091 3.23335 16.1424 3.23335 16.7805C3.23335 16.9424 3.26669 17.0948 3.35716 17.2282C3.52859 17.4996 3.85716 17.6186 4.15716 17.5329C4.47145 17.4424 4.68097 17.1663 4.68573 16.8282C4.6905 16.2567 4.6905 15.6853 4.68573 15.1186C4.68573 15.0234 4.70002 14.9853 4.80954 14.9853C6.02383 14.9901 7.23335 14.9901 8.44764 14.9853C8.54764 14.9853 8.57621 15.0091 8.57621 15.1091C8.57145 15.571 8.56669 16.0377 8.57621 16.4996C8.57621 16.6329 8.5524 16.6758 8.40478 16.6758C7.49526 16.6663 6.58097 16.671 5.67145 16.671C5.61907 16.671 5.57145 16.671 5.51907 16.6758C5.38573 16.6948 5.29526 16.7901 5.30954 16.9091C5.32383 17.0377 5.39526 17.1139 5.52383 17.1234C5.57621 17.1282 5.62383 17.1282 5.67621 17.1282C8.28573 17.1282 10.8905 17.1282 13.5 17.1282C13.6 17.1282 13.6572 17.1424 13.7095 17.2472C13.9 17.6186 14.2143 17.8091 14.6286 17.8186C15.0572 17.8234 15.4857 17.8234 15.9143 17.8186C16.5095 17.8139 16.9619 17.3758 16.9714 16.7805C16.981 16.1472 16.981 15.5186 16.9714 14.8853C16.9619 14.2853 16.5238 13.852 15.9238 13.8424C15.4953 13.8377 15.0667 13.8377 14.6381 13.8424C14.2048 13.8472 13.8905 14.0472 13.7 14.4329C13.6619 14.5139 13.6143 14.5282 13.5381 14.5282C13.2381 14.5234 12.9381 14.5234 12.6381 14.5282C12.5238 14.5329 12.5048 14.4948 12.5238 14.3901C12.6857 13.4377 12.8476 12.4853 13 11.5329C13.0143 11.4329 13.0524 11.4234 13.1381 11.4377C13.5905 11.5186 14.0381 11.5901 14.4905 11.671C14.6857 11.7044 14.6857 11.7044 14.6476 11.9044C14.5905 12.2329 14.5334 12.5663 14.481 12.8948C14.4619 13.0234 14.4619 13.1424 14.5953 13.2091C14.7476 13.2853 14.9 13.1901 14.9286 12.9948C14.9953 12.6091 15.0572 12.2234 15.1191 11.8377C15.1334 11.7567 15.1572 11.7091 15.2429 11.671C15.7381 11.452 15.8334 10.8329 15.4286 10.4615C15.3762 10.4139 15.3619 10.3758 15.3762 10.3044C15.6191 8.85197 15.8619 7.39483 16.1 5.94245C16.1 5.87102 16.1286 5.82816 16.2143 5.80435ZM4.22383 16.7758C4.22383 16.9805 4.12383 17.0948 3.95716 17.0996C3.7905 17.0996 3.68573 16.9853 3.68573 16.7853C3.68573 16.152 3.68573 15.5234 3.68573 14.8901C3.68573 14.6901 3.7905 14.5663 3.9524 14.5663C4.11907 14.5663 4.22383 14.6901 4.22383 14.8996C4.22383 15.2091 4.22383 15.5186 4.22383 15.8329C4.22383 16.1424 4.22859 16.4615 4.22383 16.7758ZM14.0429 14.9186C14.0476 14.5472 14.281 14.3091 14.6524 14.3044C15.0667 14.2996 15.4762 14.2996 15.8905 14.3044C16.2619 14.3091 16.5048 14.5424 16.5048 14.9139C16.5095 15.5234 16.5095 16.1377 16.5048 16.7472C16.5048 17.1234 16.2619 17.3615 15.8762 17.3615C15.4667 17.3615 15.0619 17.3615 14.6524 17.3615C14.281 17.3615 14.0429 17.1186 14.0381 16.752C14.0334 16.4472 14.0381 16.1424 14.0381 15.8329C14.0381 15.5234 14.0429 15.2234 14.0429 14.9186ZM9.40002 7.3234C9.40002 7.25197 9.40954 7.21388 9.49526 7.21388C9.83335 7.21864 10.1762 7.21864 10.5143 7.21388C10.5905 7.21388 10.6095 7.23769 10.6095 7.30911C10.6048 7.48054 10.6095 7.65673 10.6095 7.82816C10.6095 7.98531 10.6048 8.14245 10.6095 8.29959C10.6143 8.38054 10.6 8.41864 10.5048 8.41864C10.1714 8.41388 9.83335 8.41388 9.50002 8.41864C9.41907 8.41864 9.39526 8.39007 9.40002 8.31388C9.40002 7.98054 9.40002 7.65197 9.40002 7.3234ZM6.98573 4.68054C7.50954 5.27578 8.02383 5.8615 8.53335 6.44721C8.66669 6.59959 8.80002 6.75673 8.93811 6.90435C8.98097 6.95197 9.00954 6.99007 8.97145 7.06626C8.93335 7.13769 8.93811 7.2234 8.93811 7.30435C8.93811 7.64721 8.93811 7.98531 8.93811 8.32816C8.93811 8.3615 8.92859 8.40435 8.94288 8.43292C9.04764 8.62816 8.9143 8.73769 8.80478 8.8615C8.43335 9.28054 8.06192 9.69959 7.70002 10.1234C7.63811 10.1996 7.5905 10.2329 7.51907 10.1377C7.49526 10.1044 7.45716 10.071 7.42383 10.0663C7.22383 10.0234 7.20478 9.87102 7.18097 9.70435C6.9524 8.30911 6.71907 6.91388 6.48573 5.5234C6.47145 5.43769 6.48097 5.39007 6.55716 5.33769C6.78573 5.18531 6.91907 4.9615 6.98573 4.68054ZM3.52383 4.94721C3.43811 4.49007 3.35716 4.02816 3.2905 3.56626C3.24764 3.26626 3.47621 3.00435 3.80478 2.94721C4.3143 2.85673 4.82859 2.77578 5.33811 2.69483C5.43811 2.68054 5.53811 2.6615 5.63811 2.64245C5.94764 2.59007 6.2524 2.79007 6.30954 3.09959C6.38573 3.52816 6.45716 3.9615 6.52383 4.39483C6.57621 4.73769 6.38097 5.01388 6.04288 5.07102C5.60002 5.15197 5.1524 5.21864 4.70478 5.29483C4.50002 5.32816 4.29526 5.3615 4.13335 5.39007C3.81431 5.39007 3.57621 5.21388 3.52383 4.94721ZM4.38097 5.9615C4.36192 5.85197 4.38097 5.80435 4.50002 5.7853C4.97621 5.71388 5.4524 5.63292 5.92859 5.55197C6.01907 5.53769 6.02859 5.56626 6.03811 5.63769C6.21907 6.7234 6.40002 7.81388 6.58097 8.89959C6.63811 9.24721 6.69526 9.59007 6.74764 9.89483C6.77621 10.0186 6.70954 9.99959 6.67145 10.0091C6.26669 10.0805 5.86192 10.1472 5.4524 10.2139C5.33811 10.2329 5.1905 10.3091 5.11907 10.2472C5.0524 10.1901 5.06192 10.0329 5.04288 9.91864C4.82383 8.59483 4.60478 7.27578 4.38097 5.9615ZM5.09526 11.2758C4.9524 11.2996 4.82859 11.1996 4.80478 11.0663C4.77621 10.9139 4.85716 10.7853 5.01907 10.752C5.33335 10.6901 5.64764 10.6424 5.96192 10.5901C6.2905 10.5329 6.62383 10.4758 6.9524 10.4282C7.15716 10.3996 7.30954 10.5139 7.30478 10.6901C7.2905 10.8186 7.22383 10.9186 7.08573 10.9424C6.42383 11.0567 5.76192 11.171 5.09526 11.2758ZM7.38573 14.5329C7.14288 14.5234 6.89526 14.5329 6.6524 14.5329C6.40478 14.5329 6.1524 14.5282 5.90478 14.5329C5.82859 14.5329 5.80002 14.5091 5.78573 14.4329C5.64288 13.5663 5.50002 12.6996 5.3524 11.8329C5.33335 11.7329 5.3524 11.6948 5.46192 11.6758C5.92859 11.6044 6.39526 11.5234 6.85716 11.4424C6.95716 11.4234 6.99526 11.4377 7.0143 11.5472C7.16669 12.4996 7.32859 13.452 7.4905 14.4044C7.5143 14.5044 7.4905 14.5329 7.38573 14.5329ZM10.881 16.6758C10.5857 16.671 10.2905 16.6758 9.99526 16.6758C9.70478 16.6758 9.4143 16.6758 9.12383 16.6758C9.04764 16.6758 9.01907 16.6615 9.01907 16.5758C9.02383 16.0758 9.02383 15.5805 9.01907 15.0805C9.01907 15.0091 9.04288 14.9853 9.1143 14.9853C9.70478 14.9901 10.2953 14.9901 10.8857 14.9853C10.9572 14.9853 10.981 15.0044 10.981 15.0805C10.9762 15.5805 10.9762 16.0758 10.981 16.5758C10.9857 16.6615 10.9572 16.6758 10.881 16.6758ZM12.5191 14.9853C12.8334 14.9853 13.1476 14.9901 13.4667 14.9853C13.5572 14.9853 13.5905 15.0044 13.5857 15.1044C13.581 15.5948 13.581 16.0805 13.5857 16.571C13.5857 16.6615 13.5572 16.6805 13.4714 16.6805C12.8286 16.6758 12.1905 16.6758 11.5476 16.6805C11.4667 16.6805 11.4334 16.6615 11.4334 16.571C11.4381 16.0758 11.4381 15.5853 11.4334 15.0901C11.4334 15.0091 11.4572 14.9853 11.5381 14.9853C11.8714 14.9901 12.1953 14.9853 12.5191 14.9853ZM12.0524 14.4139C12.0381 14.5139 11.9905 14.5329 11.9 14.5329C11.2667 14.5282 10.6381 14.5329 10.0048 14.5329C9.37145 14.5329 8.74288 14.5329 8.10954 14.5329C8.01907 14.5329 7.97145 14.5186 7.95716 14.4186C7.79526 13.4091 7.62859 12.3996 7.45716 11.3948C7.44288 11.3186 7.4524 11.2758 7.5143 11.2282C7.61907 11.1424 7.70002 11.0329 7.72383 10.8996C7.74764 10.771 7.81907 10.6805 7.90002 10.5901C8.37621 10.052 8.84764 9.51388 9.31907 8.97102C9.37145 8.90911 9.42859 8.88054 9.5143 8.88054C9.86192 8.8853 10.2048 8.8853 10.5524 8.88054C10.6238 8.88054 10.6714 8.89959 10.7238 8.95197C11.2048 9.50435 11.6905 10.0567 12.1714 10.6044C12.2191 10.6567 12.2381 10.7139 12.2476 10.7805C12.2714 10.9567 12.3476 11.1139 12.4857 11.2282C12.5429 11.2758 12.5572 11.3186 12.5476 11.3948C12.381 12.3948 12.2143 13.4044 12.0524 14.4139ZM12.4286 10.1663C12.3524 10.1377 12.3 10.0472 12.2381 9.97578C11.8667 9.55673 11.5 9.13292 11.1286 8.71388C11.0667 8.64245 11.0476 8.57578 11.0524 8.47102C11.0714 8.01388 11.0905 7.55673 11.0429 7.09959C11.0381 7.04721 11.0334 7.00435 11.0714 6.9615C11.7191 6.2234 12.3667 5.48531 13.0286 4.72816C13.1143 5.01388 13.2572 5.2234 13.4857 5.36626C13.5476 5.40435 13.5286 5.44721 13.5191 5.49483C13.3667 6.40435 13.2191 7.30911 13.0667 8.21864C12.981 8.73292 12.8905 9.25197 12.8095 9.76626C12.7905 9.89959 12.7572 9.99959 12.6095 10.0472C12.5476 10.071 12.4714 10.1853 12.4286 10.1663ZM14.8334 11.2615C14.2048 11.1567 13.5714 11.052 12.9429 10.9472C12.7857 10.9186 12.6857 10.7948 12.7 10.6663C12.7191 10.5139 12.8286 10.4234 13.0334 10.4282C13.4095 10.4901 13.8191 10.5567 14.2286 10.6234C14.4572 10.6615 14.6905 10.6996 14.9191 10.7377C15.1286 10.771 15.2286 10.8853 15.2048 11.0567C15.181 11.2234 15.0429 11.2948 14.8334 11.2615ZM15.4048 7.28531C15.2476 8.24245 15.081 9.19959 14.9286 10.1567C14.9143 10.252 14.8905 10.271 14.7953 10.252C14.3334 10.171 13.8714 10.0948 13.4095 10.0234C13.2905 10.0044 13.2381 9.98054 13.2667 9.82816C13.5048 8.43769 13.7381 7.04245 13.9667 5.64721C13.981 5.5615 13.9905 5.53292 14.0953 5.54721C14.5667 5.63292 15.0381 5.70435 15.5095 5.7853C15.5524 5.79483 15.6619 5.75673 15.6334 5.8853C15.5572 6.35197 15.4857 6.81864 15.4048 7.28531ZM14.8619 5.21864C14.581 5.17102 14.3 5.1234 14.0191 5.07578C13.6286 5.01388 13.4286 4.75673 13.4857 4.37102C13.5476 3.97102 13.6095 3.56626 13.681 3.16626C13.7524 2.76626 14.0238 2.58531 14.4334 2.65197C15.0143 2.74721 15.5953 2.84245 16.1762 2.93769C16.5619 2.99959 16.7619 3.26626 16.7 3.65197C16.6381 4.05197 16.5714 4.45673 16.5048 4.85673C16.4476 5.18054 16.2238 5.38054 15.8762 5.38054C15.5714 5.33769 15.2143 5.28054 14.8619 5.21864Z" fill="#EEEEEE"/>
<path d="M6.09501 4.39294C6.0331 4.02151 5.97596 3.63104 5.89977 3.24056C5.87596 3.11199 5.76643 3.05485 5.6331 3.07389C5.0712 3.16913 4.50929 3.26437 3.95215 3.35961C3.78548 3.38818 3.71405 3.46437 3.73786 3.61675C3.79024 3.9977 3.85691 4.37866 3.92358 4.75961C3.94739 4.89294 4.04739 4.96437 4.18072 4.94532C4.75691 4.85485 5.3331 4.75485 5.90929 4.65485C6.03786 4.63104 6.09501 4.54532 6.09501 4.39294ZM5.52834 4.25485C5.16167 4.31199 4.79501 4.37389 4.4331 4.4358C4.35215 4.45008 4.32358 4.43104 4.31405 4.35008C4.29501 4.18818 4.26167 4.03104 4.2331 3.86913C4.22834 3.82627 4.20453 3.77389 4.27596 3.76437C4.65691 3.70246 5.03786 3.64056 5.42358 3.57866C5.47596 3.56437 5.49977 3.59294 5.50929 3.65008C5.5331 3.82151 5.56167 3.99294 5.59501 4.15961C5.60929 4.21675 5.59977 4.24532 5.52834 4.25485Z" fill="#EEEEEE"/>
</g>
<defs>
<clipPath id="clip0_3561_6590">
<rect width="20" height="20" fill="white"/>
</clipPath>
</defs>
</svg>
