<svg width="78" height="86" viewBox="0 0 78 86" fill="none" xmlns="http://www.w3.org/2000/svg">
<path d="M18.1667 59.6654C8.96192 59.6654 1.5 52.2034 1.5 42.9987C1.5 35.0527 7.06069 28.4054 14.5029 26.736C14.1737 25.2651 14 23.7355 14 22.1654C14 10.6594 23.3274 1.33203 34.8333 1.33203C44.9138 1.33203 53.322 8.49141 55.2507 18.0028C55.3891 18.0001 55.5277 17.9987 55.6667 17.9987C67.1726 17.9987 76.5 27.3261 76.5 38.832C76.5 48.911 69.3427 57.3183 59.8333 59.2486M51.5 47.1654L39 34.6654M39 34.6654L26.5 47.1654M39 34.6654L39 84.6654" stroke="#23BC7C" stroke-width="2" stroke-linecap="round" stroke-linejoin="round"/>
</svg>
