<svg width="20" height="20" viewBox="0 0 20 20" fill="none" xmlns="http://www.w3.org/2000/svg">
<path fill-rule="evenodd" clip-rule="evenodd" d="M14.2723 4.89456C11.9128 2.53515 8.08748 2.53515 5.72806 4.89456C3.36864 7.25398 3.36864 11.0794 5.72806 13.4388L9.55936 17.2701C9.80331 17.514 10.197 17.5141 10.4412 17.2699L14.2723 13.4388C16.6317 11.0794 16.6317 7.25398 14.2723 4.89456ZM4.84418 4.01068C7.69175 1.16311 12.3086 1.16311 15.1561 4.01068C18.0037 6.85825 18.0037 11.4751 15.1561 14.3227L11.3777 18.1011C11.3584 18.1204 11.3667 18.1121 11.3725 18.1063L11.325 18.1538C10.5929 18.8859 9.40782 18.8863 8.67547 18.1539L4.84418 14.3227C1.9966 11.4751 1.9966 6.85825 4.84418 4.01068ZM10.0002 7.29167C8.96463 7.29167 8.12516 8.13113 8.12516 9.16667C8.12516 10.2022 8.96463 11.0417 10.0002 11.0417C11.0357 11.0417 11.8752 10.2022 11.8752 9.16667C11.8752 8.13113 11.0357 7.29167 10.0002 7.29167ZM6.87516 9.16667C6.87516 7.44078 8.27427 6.04167 10.0002 6.04167C11.7261 6.04167 13.1252 7.44078 13.1252 9.16667C13.1252 10.8926 11.7261 12.2917 10.0002 12.2917C8.27427 12.2917 6.87516 10.8926 6.87516 9.16667Z" fill="#CDD3D4"/>
</svg>
