<svg width="18" height="18" viewBox="0 0 24 24" fill="none" xmlns="http://www.w3.org/2000/svg">
<path fill-rule="evenodd" clip-rule="evenodd" d="M12 0.333344C12.5523 0.333344 13 0.781059 13 1.33334V11H22.6667C23.219 11 23.6667 11.4477 23.6667 12C23.6667 12.5523 23.219 13 22.6667 13H13V22.6667C13 23.219 12.5523 23.6667 12 23.6667C11.4477 23.6667 11 23.219 11 22.6667V13H1.33333C0.781049 13 0.333334 12.5523 0.333334 12C0.333334 11.4477 0.781049 11 1.33333 11H11V1.33334C11 0.781059 11.4477 0.333344 12 0.333344Z" fill="#CDD3D4"/>
</svg>
