<svg width="20" height="20" viewBox="0 0 20 20" fill="none" xmlns="http://www.w3.org/2000/svg">
<g clip-path="url(#clip0_3592_2755)">
<path d="M3.27148 7.01897C3.28101 7.00469 3.29053 6.9904 3.30006 6.97612C3.4572 6.59516 3.84767 6.49993 4.16672 6.76183C4.44767 6.99516 4.7191 7.23326 5.02863 7.4285C5.60482 7.79516 6.24291 7.94278 6.92387 7.94278C7.78101 7.94278 8.53339 7.66659 9.19529 7.1285C9.64291 6.76659 10.0667 6.37135 10.5477 6.04278C11.4382 5.43802 12.4286 5.22374 13.4905 5.29993C14.062 5.33802 14.6096 5.47135 15.1286 5.7285C15.6667 5.99516 16.1334 6.36183 16.5715 6.76659C16.781 6.95707 16.7858 7.27135 16.6048 7.47612C16.4239 7.68564 16.1239 7.7285 15.8953 7.55707C15.6667 7.38564 15.4524 7.18564 15.2191 7.01421C14.181 6.26183 13.0477 6.15707 11.8524 6.54278C11.381 6.69516 10.9905 6.99516 10.6096 7.30945C10.2667 7.59516 9.93339 7.8904 9.57148 8.15231C8.7572 8.74278 7.84291 8.9904 6.83815 8.9904C5.6191 8.98564 4.59529 8.52374 3.69529 7.73802C3.53339 7.59516 3.34767 7.47135 3.27148 7.25231C3.27148 7.17612 3.27148 7.09516 3.27148 7.01897Z" fill="#EEEEEE"/>
<path d="M3.27148 9.88129C3.28101 9.86701 3.29529 9.85749 3.30006 9.8432C3.47148 9.45749 3.8572 9.37653 4.18101 9.64796C4.45244 9.88129 4.72863 10.1099 5.03339 10.3051C5.68101 10.7194 6.39529 10.848 7.15244 10.8099C7.90958 10.7718 8.56672 10.4956 9.1572 10.0289C9.61434 9.66701 10.0334 9.26701 10.5143 8.93368C11.1858 8.47177 11.9286 8.21463 12.7382 8.16701C13.562 8.11939 14.362 8.22415 15.1096 8.59558C15.6477 8.86225 16.1143 9.22891 16.5572 9.62891C16.7715 9.82415 16.781 10.1384 16.5953 10.3527C16.4143 10.5622 16.1143 10.6003 15.8858 10.4289C15.6524 10.2527 15.4382 10.0527 15.2001 9.88129C14.162 9.13368 13.0334 9.0432 11.8429 9.41939C11.3524 9.57653 10.9524 9.89082 10.562 10.2242C10.1143 10.6003 9.67625 10.9908 9.16672 11.2908C8.56672 11.6384 7.92387 11.8194 7.23815 11.8622C6.42387 11.9099 5.63339 11.8051 4.89053 11.4384C4.34768 11.1718 3.88101 10.7956 3.43339 10.4003C3.3572 10.3242 3.33339 10.2242 3.27148 10.1432C3.27148 10.0575 3.27148 9.97177 3.27148 9.88129Z" fill="#EEEEEE"/>
<path d="M3.27136 12.7733C3.29517 12.7256 3.31422 12.678 3.33803 12.6352C3.49993 12.3447 3.8666 12.278 4.13803 12.4923C4.38089 12.6875 4.61422 12.8923 4.8666 13.0733C5.57613 13.578 6.37136 13.7399 7.22851 13.6828C8.07136 13.6256 8.76184 13.2542 9.39041 12.7161C9.72851 12.4256 10.0666 12.1352 10.4285 11.8733C11.2428 11.2875 12.1523 11.0352 13.1476 11.0352C14.3666 11.0352 15.3904 11.4923 16.2904 12.2828C16.3809 12.359 16.4714 12.4352 16.5571 12.5161C16.7618 12.7161 16.7761 13.0161 16.5999 13.2304C16.419 13.4447 16.1095 13.4828 15.8809 13.3066C15.6523 13.1304 15.438 12.9352 15.2047 12.7637C14.1666 12.0161 13.038 11.9161 11.8476 12.2971C11.3333 12.4637 10.9142 12.8018 10.5047 13.1494C10.1047 13.4875 9.70946 13.8352 9.26184 14.1113C8.6666 14.478 8.01898 14.678 7.32374 14.7304C6.62374 14.7828 5.94279 14.7209 5.28089 14.478C4.65708 14.2542 4.13327 13.8685 3.63327 13.4447C3.48565 13.3209 3.33803 13.2018 3.2666 13.0113C3.27136 12.9304 3.27136 12.8542 3.27136 12.7733Z" fill="#EEEEEE"/>
</g>
<defs>
<clipPath id="clip0_3592_2755">
<rect width="20" height="20" fill="white"/>
</clipPath>
</defs>
</svg>
