<?xml version="1.0" encoding="UTF-8"?>
<svg id="Layer_2" data-name="Layer 2" xmlns="http://www.w3.org/2000/svg" viewBox="0 0 1917.01 282.87">
  <defs>
    <style>
      .cls-1 {
        fill: #24b34b;
      }
    </style>
  </defs>
  <g id="Layer_2-2" data-name="Layer 2">
    <g>
      <path class="cls-1" d="M0,27.43c5.5-9.27,13.47-12.66,24.35-12.47,31.12,.53,62.25,.11,93.37,.21,47.71,.15,82.9,35.2,83.15,82.71,.06,11.99,.06,23.99,0,35.98-.25,47.07-35.38,82.24-82.48,82.43-31.7,.13-63.39-.2-95.09,.18-10.46,.12-18.42-2.88-23.3-12.45V27.43ZM37.69,114.83c0,17.97,.18,35.94-.09,53.91-.1,6.77,2.01,9.86,9.27,9.78,24.81-.3,49.64,.19,74.45-.3,23.58-.47,40.83-17.88,41.5-41.42,.4-13.97,.39-27.96,0-41.93-.66-23.76-18.29-41.25-42.26-41.64-24.53-.4-49.06,.04-73.59-.25-7.16-.09-9.49,2.77-9.37,9.66,.29,17.4,.1,34.8,.1,52.2Z"/>
      <path class="cls-1" d="M351.45,282.87c-.13-9.99-.13-19.99-.44-29.98-.18-5.9,2.41-8.12,8.2-8.06,17.43,.17,34.85,.11,52.28,.01,15.21-.08,18.82-3.65,18.84-18.59,.04-35.71,.05-71.42,0-107.13-.02-13.44-3.84-17.45-17.24-17.58-19.42-.2-38.86-.2-58.28,0-12.65,.14-16.94,4.59-17.05,17.18-.13,14.57-.14,29.14,0,43.71,.12,13.04,3.12,15.9,16.47,15.97,17.43,.08,34.86,.25,52.28-.07,7.47-.14,11.25,2.01,10.58,10.22-.56,6.81-.24,13.71-.13,20.56,.08,5.05-2.2,7.23-7.24,7.21-21.43-.11-42.88,.63-64.27-.33-25.03-1.11-44.91-22.13-45.53-47.21-.45-18.56-.46-37.15,0-55.7,.68-27.6,21.36-47.94,48.86-48.24,23.42-.26,46.86-.3,70.28,.04,28.5,.41,48.99,21.12,49.16,49.69,.22,38.57,.15,77.14,.04,115.7-.08,28.47-16.6,47.1-45.01,51.27-1.67,.24-3.28,.88-4.92,1.33h-66.86Z"/>
      <path class="cls-1" d="M1131.5,282.87c-.13-9.99-.13-19.99-.44-29.98-.18-5.9,2.41-8.12,8.2-8.06,17.43,.17,34.85,.11,52.28,.01,15.21-.08,18.82-3.65,18.84-18.59,.04-35.71,.05-71.42,0-107.13-.02-13.44-3.84-17.45-17.24-17.58-19.42-.2-38.86-.2-58.28,0-12.65,.14-16.94,4.59-17.05,17.18-.13,14.57-.14,29.14,0,43.71,.12,13.04,3.12,15.9,16.46,15.97,17.43,.08,34.86,.25,52.28-.07,7.47-.13,11.25,2.01,10.58,10.21-.56,6.81-.24,13.71-.13,20.56,.08,5.04-2.2,7.23-7.23,7.21-21.43-.11-42.88,.63-64.27-.33-25.03-1.11-44.91-22.13-45.53-47.2-.45-18.56-.46-37.15,0-55.7,.68-27.6,21.36-47.94,48.86-48.24,23.42-.26,46.86-.3,70.28,.04,28.5,.41,48.99,21.12,49.16,49.69,.22,38.57,.15,77.14,.04,115.7-.08,28.47-16.6,47.1-45.01,51.27-1.67,.24-3.28,.88-4.92,1.33h-66.86Z"/>
      <path class="cls-1" d="M1301.22,0c.06,52.84,.11,105.68,.18,158.53,.02,16.8,3.14,19.87,20.11,19.89,18.85,.02,37.7,.07,56.56-.03,12.61-.06,16.85-4.21,17.05-17.03,.22-13.99,.23-27.99-.01-41.99-.22-12.54-5.34-17.65-17.93-17.83-17.71-.24-35.42-.31-53.13,.01-7.1,.13-9.83-2.52-9.41-9.52,.39-6.55,.18-13.14,.09-19.7-.06-4.77,1.62-7.6,6.89-7.57,22.28,.13,44.6-.7,66.82,.48,23.77,1.27,42.94,22.45,43.33,46.23,.31,18.85,.36,37.71,0,56.55-.53,27.47-21.37,48.02-48.69,48.23-22.85,.18-45.7,.18-68.55,0-29.52-.23-50.9-21.28-51.03-50.88-.24-55.13-.02-110.26,0-165.38h37.72Z"/>
      <path class="cls-1" d="M1800.11,0c.07,69.05,.09,138.11,.29,207.16,.02,6.4-1.91,9.37-8.79,9.22-27.96-.61-23.84,3.79-23.93-23.13-.2-59.92-.07-119.85-.05-179.77,0-4.55-.42-9.16,1.62-13.47h30.86Z"/>
      <path class="cls-1" d="M269.16,0c.02,8.28-.3,16.58,.15,24.84,.41,7.6-2.81,10.24-10.11,9.75-6.26-.42-12.57-.34-18.84-.02-6.51,.33-9.48-2.08-9.18-8.88,.38-8.55,.2-17.13,.26-25.7h37.72Z"/>
      <path class="cls-1" d="M538.32,0c.02,8.28-.3,16.58,.15,24.84,.41,7.6-2.81,10.24-10.11,9.75-6.26-.42-12.57-.34-18.84-.02-6.51,.33-9.48-2.08-9.18-8.87,.38-8.55,.2-17.13,.26-25.7h37.72Z"/>
      <path class="cls-1" d="M1671.82,216.32c-10,0-20-.28-29.99,.07-13.69,.48-26.09-2.96-36.74-11.57-3.67-2.96-6.12-2.54-9.6,.18-10.52,8.21-22.56,11.64-35.97,11.41-21.13-.36-42.27,.02-63.4-.14-30.27-.23-50.95-21.08-51.11-51.43-.09-17.14-.17-34.28,.04-51.41,.33-26.88,20.86-48.01,47.69-48.51,24.27-.46,48.55,.03,72.83-.19,11.46-.1,21.29,3.82,29.88,10.97,3.27,2.72,5.39,3.85,9.36,.64,10.09-8.15,21.78-11.9,34.96-11.7,22.27,.35,44.56-.05,66.83,.17,27.44,.28,48.32,20.58,49.05,48.03,.49,18.55,.44,37.13,.02,55.69-.6,26.11-21.58,46.88-47.85,47.66-11.99,.36-23.99,.06-35.99,.06v.06Zm-143.45-37.96c11.41,0,22.83,.19,34.24-.06,9.18-.2,12.64-3.45,12.78-12.39,.27-16.83,0-33.67,.12-50.51,.06-8.49-4.63-13.27-12.38-13.44-22.52-.5-45.07-.49-67.6-.02-7.7,.16-12.61,4.75-12.57,13.28,.08,16.83-.18,33.67,.15,50.5,.18,8.97,3.8,12.36,12.73,12.57,10.84,.26,21.69,.06,32.53,.07Zm143.1,0v.03c10.84,0,21.69,.15,32.53-.04,10.27-.19,13.6-3.29,13.73-13.24,.22-16.55-.03-33.1,.08-49.65,.06-8.47-4.57-13.31-12.34-13.48-22.52-.5-45.07-.5-67.6-.04-7.69,.16-12.65,4.69-12.61,13.24,.07,16.83-.19,33.67,.14,50.5,.17,8.99,3.79,12.41,12.68,12.62,11.12,.26,22.26,.06,33.38,.06Z"/>
      <path class="cls-1" d="M953.04,221.1c-11.74-.7-26.32,1.27-40.8-1.31-29.97-5.34-48.22-26.76-48.4-57.23-.1-17.41-.11-34.83,0-52.24,.22-32.06,23.78-56.5,55.96-57.22,24.82-.56,49.67-.45,74.5-.02,27.01,.47,49.42,20.08,53.03,46.98,3.27,24.38,3.26,49.02,.18,73.42-3.53,28.07-27.41,46.84-59.16,47.58-10.84,.25-21.69,.04-35.32,.04Zm2.72-48.14c11.4,0,22.8-.03,34.2,.01,7.4,.03,11.05-3.55,11.03-10.98-.04-16.82,0-33.63-.04-50.45-.01-6.93-3.34-10.51-10.5-10.49-22.8,.07-45.6,.07-68.41,0-6.63-.02-10.58,3.43-10.72,9.67-.4,17.37-.44,34.75-.1,52.12,.13,6.58,4.09,10.27,11.18,10.17,11.11-.16,22.23-.04,33.35-.06Z"/>
      <path class="cls-1" d="M715.57,216.3c-35.41,0-70.83,.04-106.24-.02-19.86-.03-26.85-7.04-26.86-26.64,0-58.26-.01-116.52,0-174.78,0-11.45,.24-11.65,11.32-11.71,9.42-.04,18.87,.41,28.27-.13,8.13-.47,11.04,2.37,10.91,10.69-.42,26.27-.15,52.55-.15,78.82,0,23.99-.01,47.98,0,71.97,.01,11.97,.04,12.01,11.78,12.02,59.12,.02,118.23,0,177.35,.01q12.95,0,12.99,12.72c.01,5.43-.37,10.88,.08,16.27,.67,8.07-2.31,11.02-10.67,10.94-36.27-.37-72.54-.16-108.81-.16Z"/>
      <path class="cls-1" d="M1893.77,63.53c4.85-.01,9.71-.16,14.56,.04,2.98,.13,7.16-1.39,8.47,2.1,1.07,2.86-2.63,4.72-4.62,6.6-18.02,17.08-36.25,33.94-54.16,51.13-12.66,12.15-11.28,8.95-.9,21.14,18.31,21.5,37.36,42.38,56.06,63.55,1.64,1.85,4.62,3.53,3.65,6.28-1.07,3.03-4.44,1.81-6.83,1.86-7.99,.16-16.03-.47-23.97,.21-8.57,.73-14.45-2.49-19.92-8.87-16.7-19.5-33.85-38.62-50.84-57.88-11.8-13.38-11.51-22.85,1.5-35.45,15.58-15.09,31.4-29.94,46.97-45.04,3.94-3.82,8.25-5.86,13.75-5.7,5.42,.16,10.85,.04,16.27,.02Z"/>
      <path class="cls-1" d="M231.26,139.68c0-21.69,.21-43.38-.12-65.07-.11-7.36,2.38-10.47,9.89-9.97,6.53,.44,13.13,.33,19.68,.04,6.34-.28,8.6,2.58,8.55,8.68-.16,18.83-.04,37.67-.04,56.51,0,25.4-.21,50.8,.12,76.2,.1,7.74-2.45,11-10.38,10.36-6.24-.5-12.56-.38-18.82-.03-6.73,.38-9.03-2.51-8.97-9.07,.23-22.54,.09-45.09,.09-67.64Z"/>
      <path class="cls-1" d="M538.37,140.9c0,21.98-.16,43.95,.09,65.92,.08,6.87-2.18,10.05-9.39,9.57-6.25-.41-12.58-.43-18.82,0-7.45,.53-10.01-2.38-9.96-9.86,.26-38.53,.12-77.06,.12-115.58,0-5.99,.23-12-.03-17.98-.29-6.48,2.87-8.54,8.86-8.31,6.55,.25,13.14,.36,19.68-.03,7.06-.42,9.62,2.47,9.54,9.47-.26,22.26-.09,44.52-.09,66.78Z"/>
    </g>
  </g>
</svg>