<?xml version="1.0" encoding="UTF-8"?>
<svg id="Layer_2" data-name="Layer 2" xmlns="http://www.w3.org/2000/svg" viewBox="0 0 1775.16 521.28">
  <defs>
    <style>
      .cls-1 {
        fill: #4d4d4d;
      }
    </style>
  </defs>
  <g id="Layer_1-2" data-name="Layer 1">
    <g>
      <g>
        <path class="cls-1" d="M201.76,90.54c5.4,4.75,9.27,8.16,13.72,12.07-37.2,5.05-73.26,9.96-109.99,14.95,5.71-8.97,11.23-17.64,16.75-26.31-.59-.69-1.18-1.37-1.77-2.06-23.83,22.6-49.93,41.1-83.17,47.83,5.51-10.8,10.78-21.12,16.04-31.43-.57-.33-1.15-.66-1.72-.99-9.34,9.69-18.91,19.19-27.95,29.15-5.74,6.31-12.61,4.32-17.87,1.55-3.32-1.75-6.53-8.76-5.63-12.37,1.79-7.19,5.27-14.7,10.14-20.24,13.02-14.82,27.73-27.87,46.89-34.64,2.52-.89,4.85-2.35,9.4-4.61-5.56-2.02-8.85-3.21-13.96-5.07,41.88-25.96,87.14-32.02,134.16-31.2,0-1.11,0-2.22,0-3.33-8.58-1.8-17.16-3.59-25.74-5.39-.1-.52-.2-1.03-.3-1.55,14.05-2.69,28.02-5.92,42.16-7.96C251.32,1.97,299.95-1.71,348.92,.78c17.05,.87,32.01,7.73,46.84,15.2,2.42,1.22,4.79,2.53,8.51,2.59-2.4-4.49-4.8-8.99-8.06-15.1,16.94,1.35,32.36,1.46,47.36,3.99,39.07,6.59,78.13,13.5,116.86,21.8,18.04,3.86,35.55,10.62,52.9,17.15,21.55,8.12,42.82,17.04,63.96,26.2,20.72,8.98,33.99,26.12,46.27,44.15,2.46,3.61,5.28,6.98,7.93,10.46,.74-.27,1.47-.55,2.21-.82-.34-4.56-.69-9.12-1.03-13.68,.52-.45,1.04-.89,1.56-1.34,10.31,11.53,21.48,22.41,30.63,34.79,6.66,9.02,10.34,20.19,15.97,30.04,2.48,4.34,5.96,8.53,9.93,11.54,10.89,8.24,22.79,15.19,33.35,23.8,14.29,11.65,27.87,24.19,41.44,36.7,8.11,7.49,16.77,14.82,19.58,29.22-7.78-4.88-14.13-8.63-20.23-12.74-19.08-12.88-38.1-25.88-57.09-38.89-9.41-6.45-18.4-13.61-28.22-19.35-6.22-3.64-13.71-7.61-20.49-7.38-30.5,1.05-58.63-7.27-86.46-18.35-18.19-7.24-36.84-13.32-57.28-20.64,14.23-7.66,28.02-13.06,36.76-29.48-40.95,15.97-80.3,17.87-121.04,4.18,3.74-4.05,7.08-7.14,9.75-10.73,2.44-3.29,4.14-7.12,6.63-11.52-2.14-.12-3.11-.49-3.54-.16-19.68,15.11-41.2,17.1-64.76,10.84-48.55-12.9-98.62-16.64-148.38-19.3-40.92-2.19-81.13-8.18-121.55-13.4-1.79-.23-3.63-.03-7.46-.03Zm534.42,58.46c.66-.93,1.31-1.85,1.97-2.78-16.82-10.48-33.13-21.94-50.58-31.24-34.04-18.14-70.17-31.37-107-42.83-53.38-16.61-108-27.19-163.5-32.29-48.84-4.49-97.92-8.58-147.03-4.07-36.61,3.36-73.27,6.94-109.6,12.46-25.18,3.82-49.66,11.69-72.77,23.13,5.36-.55,10.58-1.7,15.72-3.1,41.43-11.3,83.34-19.99,126.38-21.57,33.94-1.24,67.94-2.77,101.86-2.06,33.37,.7,67,1.89,99.93,6.78,43.67,6.48,86.99,15.82,130.04,25.79,23.79,5.51,46.64,15,70.02,22.38,35.53,11.21,69.2,26.28,100.06,47.32,1.34,.92,2.99,1.39,4.5,2.07Z"/>
        <path class="cls-1" d="M1163.96,381.03c-13.95,8.2-26.69,14.82-32.9,29.82,37.8-16.73,76.53-21.05,117.03-10.69-4.84,7.6-9.48,14.89-14.12,22.19,.72,.53,1.44,1.06,2.17,1.6,6.65-4.1,13.22-8.34,19.96-12.29,15.14-8.87,31.27-5.09,46.84-2.49,50.97,8.51,102.47,9.64,153.78,8.78,37.58-.63,74.65,3.23,111.94,5.28,2.13,.12,4.27,.02,9.18,.02-5.95-4.7-9.92-7.85-14.59-11.54,36.28-7.36,71.52-14.51,107.47-21.81-5.24,9.36-10.14,18.11-15.04,26.86,.72,.69,1.43,1.39,2.15,2.08,22.14-23.82,46.59-44.01,79.06-52.6-4.8,10.83-9.34,21.04-13.87,31.25,.61,.38,1.23,.77,1.84,1.15,5.29-5.84,10.65-11.61,15.83-17.54,3.19-3.65,6.06-7.57,9.13-11.33,4.55-5.58,13.94-7.64,19.67-3.95,6.34,4.09,6.52,10.27,4.59,16.74-4.27,14.3-14.3,24.74-24.98,34.1-8.45,7.41-18.61,12.87-28.03,19.18-2.01,1.34-4.07,2.6-7.79,4.97,5.17,1.69,8.44,2.75,13.29,4.33-39.85,27.83-84.04,37.13-130.57,39.2,.12,1.17,.25,2.33,.37,3.5,8.54,1.13,17.09,2.26,25.63,3.39,.16,.37,.32,.74,.48,1.11-5.94,1.83-11.81,3.94-17.83,5.44-55.33,13.76-111.39,22.27-168.51,23.09-16.79,.24-31.8-6-46.79-12.41-1.82-.78-3.6-1.65-5.45-2.34-.38-.14-1,.34-2.3,.84,2.71,4.26,5.34,8.38,8.69,13.65-3.56,.28-5.92,.59-8.28,.62-39.52,.53-78.58-3.74-117.74-8.89-34.45-4.54-68.03-12.02-101.04-22.24-22.01-6.81-44.33-13.52-64.98-23.45-12.04-5.79-21.39-17.53-31.34-27.21-5.71-5.56-10.21-12.37-15.26-18.61-.9,.45-1.8,.89-2.7,1.34,.77,4.45,1.55,8.9,2.32,13.36-.54,.48-1.09,.96-1.63,1.44-11.09-11.18-22.91-21.76-33.03-33.76-6.88-8.15-11.05-18.53-17.1-27.46-2.97-4.39-6.96-8.52-11.37-11.43-18.78-12.37-38.47-23.43-56.69-36.55-12.62-9.09-23.58-20.55-34.85-31.41-3.06-2.95-4.52-7.56-5.3-12.97,4.69,2.34,9.56,4.38,14.04,7.07,18.56,11.15,36.77,22.9,55.54,33.66,16.5,9.46,33.55,17.98,50.49,26.65,2.38,1.22,5.63,1.53,8.34,1.19,32.15-3.98,62.31,4.49,92.4,14.1,16.46,5.26,33.2,9.62,51.83,14.97Zm526.52,52.61c-3.99,1.21-7.97,2.47-11.97,3.64-25.47,7.4-50.73,15.64-76.47,21.97-48.19,11.84-97.61,15.42-146.93,16.95-49.85,1.55-99.86,3.42-149.61-4.24-49.04-7.55-98.27-13.25-146.14-27.56-38.07-11.38-75.94-22.6-110.16-43.47-1.34-.82-3.21-.76-4.83-1.11-.37,.91-.73,1.81-1.1,2.72,17.19,9.27,33.92,19.57,51.67,27.6,34.1,15.41,69.89,26.1,106.29,34.74,48.18,11.45,96.91,19.77,146.44,20.57,48.76,.79,97.7,1.57,146.27-1.83,38.25-2.68,76.28-10.62,113.98-18.3,28.94-5.89,56.87-15.97,82.55-31.68Z"/>
      </g>
      <circle class="cls-1" cx="884.58" cy="275.63" r="17"/>
    </g>
  </g>
</svg>