<svg width="20" height="20" viewBox="0 0 20 20" fill="none" xmlns="http://www.w3.org/2000/svg">
<path fill-rule="evenodd" clip-rule="evenodd" d="M6.96159 3.54167C7.23364 2.57979 8.11801 1.875 9.16699 1.875L10.8337 1.875C11.8826 1.875 12.767 2.57979 13.0391 3.54167H14.167C15.4326 3.54167 16.4587 4.56768 16.4587 5.83333V15.8333C16.4587 17.099 15.4326 18.125 14.167 18.125H5.83366C4.56801 18.125 3.54199 17.099 3.54199 15.8333L3.54199 5.83333C3.54199 4.56768 4.56801 3.54167 5.83366 3.54167H6.96159ZM6.96159 4.79167H5.83366C5.25836 4.79167 4.79199 5.25804 4.79199 5.83333L4.79199 15.8333C4.79199 16.4086 5.25836 16.875 5.83366 16.875H14.167C14.7423 16.875 15.2087 16.4086 15.2087 15.8333L15.2087 5.83333C15.2087 5.25804 14.7423 4.79167 14.167 4.79167H13.0391C12.767 5.75354 11.8826 6.45833 10.8337 6.45833H9.16699C8.11801 6.45833 7.23364 5.75354 6.96159 4.79167ZM9.16699 3.125C8.5917 3.125 8.12533 3.59137 8.12533 4.16667C8.12533 4.74196 8.5917 5.20833 9.16699 5.20833L10.8337 5.20833C11.409 5.20833 11.8753 4.74196 11.8753 4.16667C11.8753 3.59137 11.409 3.125 10.8337 3.125H9.16699ZM12.9423 9.55806C13.1863 9.80214 13.1863 10.1979 12.9423 10.4419L9.60893 13.7753C9.49172 13.8925 9.33275 13.9583 9.16699 13.9583C9.00123 13.9583 8.84226 13.8925 8.72505 13.7753L7.05838 12.1086C6.81431 11.8645 6.81431 11.4688 7.05838 11.2247C7.30246 10.9806 7.69819 10.9806 7.94227 11.2247L9.16699 12.4495L12.0584 9.55806C12.3025 9.31398 12.6982 9.31398 12.9423 9.55806Z" fill="#CDD3D4"/>
</svg>
