<svg width="124" height="124" viewBox="0 0 124 124" fill="none" xmlns="http://www.w3.org/2000/svg">
<path d="M41.3332 20.6667H30.9998C25.2929 20.6667 20.6665 25.2931 20.6665 31V93C20.6665 98.7069 25.2929 103.333 30.9998 103.333H92.9998C98.7068 103.333 103.333 98.7069 103.333 93V31C103.333 25.2931 98.7068 20.6667 92.9998 20.6667H82.6665M61.9998 15.5V56.8333M61.9998 56.8333L77.4998 41.3333M61.9998 56.8333L46.4998 41.3333M20.6665 67.1667H34.0264C35.3967 67.1667 36.7108 67.711 37.6798 68.6799L50.1532 81.1534C51.1222 82.1223 52.4363 82.6667 53.8066 82.6667H70.1931C71.5634 82.6667 72.8775 82.1223 73.8465 81.1534L86.3199 68.6799C87.2888 67.711 88.603 67.1667 89.9733 67.1667H103.333" stroke="#A5E65E" stroke-width="4" stroke-linecap="round" stroke-linejoin="round"/>
</svg>
