<svg width="16" height="14" viewBox="0 0 16 14" fill="none" xmlns="http://www.w3.org/2000/svg">
<path d="M12.1667 4.50033V2.83366C12.1667 1.91318 11.4205 1.16699 10.5 1.16699H2.16667C1.24619 1.16699 0.5 1.91318 0.5 2.83366V7.83366C0.5 8.75413 1.24619 9.50033 2.16667 9.50033H3.83333M5.5 12.8337H13.8333C14.7538 12.8337 15.5 12.0875 15.5 11.167V6.16699C15.5 5.24652 14.7538 4.50033 13.8333 4.50033H5.5C4.57953 4.50033 3.83333 5.24652 3.83333 6.16699V11.167C3.83333 12.0875 4.57953 12.8337 5.5 12.8337ZM11.3333 8.66699C11.3333 9.58747 10.5871 10.3337 9.66667 10.3337C8.74619 10.3337 8 9.58747 8 8.66699C8 7.74652 8.74619 7.00033 9.66667 7.00033C10.5871 7.00033 11.3333 7.74652 11.3333 8.66699Z" stroke="#EEEEEE" stroke-linecap="round" stroke-linejoin="round"/>
</svg>
